<?xml version="1.0" encoding="utf-8"?>
<!-- Generator: Adobe Illustrator 19.2.1, SVG Export Plug-In . SVG Version: 6.00 Build 0)  -->
<svg version="1.1" id="Layer_1" xmlns:sketch="http://www.bohemiancoding.com/sketch/ns"
	 xmlns="http://www.w3.org/2000/svg" xmlns:xlink="http://www.w3.org/1999/xlink" x="0px" y="0px" viewBox="0 0 128 32"
	 style="enable-background:new 0 0 128 32;" xml:space="preserve">
<style type="text/css">
	.st0{fill:#FFFFFF;}
	.st1{fill:#3498DB;}
	.st2{fill:#7DA2BA;}
</style>
<title>components/login/login_marketing_icons</title>
<desc>Created with Sketch.</desc>
<g id="App-Symbols" sketch:type="MSPage">
	<g id="login_info_call-copy-3" sketch:type="MSArtboardGroup">
		<g id="components_x2F_login_x2F_login_x5F_marketing_x5F_icons" sketch:type="MSLayerGroup">
			<path id="Path" sketch:type="MSShapeGroup" class="st0" d="M112,32c-8.8,0-16-7.2-16-16s7.2-16,16-16s16,7.2,16,16
				S120.8,32,112,32L112,32z"/>
			<path id="Path_1_" sketch:type="MSShapeGroup" class="st0" d="M64,32c-8.8,0-16-7.2-16-16S55.2,0,64,0s16,7.2,16,16
				S72.8,32,64,32L64,32z"/>
			<circle id="Oval-185" sketch:type="MSShapeGroup" class="st0" cx="16" cy="16" r="16">
			</circle>
			<circle id="Path_2_" sketch:type="MSShapeGroup" class="st1" cx="64" cy="16" r="15">
			</circle>
			<path id="filter_task_filled" sketch:type="MSShapeGroup" class="st2" d="M16,32C7.2,32,0,24.8,0,16S7.2,0,16,0s16,7.2,16,16
				S24.8,32,16,32L16,32z"/>
			<path id="Path_3_" sketch:type="MSShapeGroup" class="st1" d="M112,31c-8.3,0-15-6.7-15-15s6.7-15,15-15s15,6.7,15,15
				S120.3,31,112,31L112,31z"/>
			<path id="Path-40" sketch:type="MSShapeGroup" class="st0" d="M104.1,16c-0.2,0.2-0.2,0.5,0,0.7l4.8,4.8c0.2,0.2,0.5,0.2,0.7,0
				l10.2-10.2c0.2-0.2,0.2-0.5,0-0.7l-0.1-0.1c-0.2-0.2-0.5-0.2-0.7,0l-9.7,9.7l-4.4-4.4c-0.2-0.2-0.5-0.2-0.7,0L104.1,16z"/>
			<path id="login_marketing_icons" sketch:type="MSShapeGroup" class="st0" d="M72.6,10.5c0-0.2-0.1-0.3-0.2-0.3s-0.2,0-0.2,0.2
				c0,0-0.2,0.2-0.4,0.6c-0.2,0.3-0.4,0.6-0.4,0.7c-0.4,0.7-1,0.8-1.6,0.4c-0.4-0.3-0.7-0.6-0.7-0.9c0-0.3,0-0.5,0.2-0.6
				c0.4-0.8,0.7-1.2,0.8-1.4c0-0.1,0-0.2,0-0.3c-0.1-0.1-0.2-0.1-0.3-0.1c-1.5,0.6-2.3,1.3-2.4,1.9c-0.1,0.3-0.1,0.6-0.1,1
				s0,0.8-0.1,1.1s-0.3,0.6-0.5,0.9l-1.2,1.2l1.2,1.3l1.4-1.3c0.5-0.5,1.1-0.7,1.7-0.6c1.2,0.3,2.1-0.1,2.6-1.1
				C72.7,12.6,72.8,11.6,72.6,10.5L72.6,10.5z M65.3,8.8c-0.3,0-1.2,0-2.6,0c-0.6,0.1-1.7,0.7-3.2,1.7c-0.3,0.2-0.5,0.4-0.7,0.6
				c-0.2,0.2-0.4,0.3-0.5,0.4s-0.1,0.1-0.2,0.1c-0.1,0.1-0.1,0.3-0.2,0.5c0,0.3-0.2,0.5-0.3,0.7c-0.2,0.2-0.4,0.3-0.6,0.3
				s-0.4,0-0.5,0.1c0,0-0.2,0.1-0.3,0.3c-0.2,0.1-0.3,0.2-0.3,0.3c-0.1,0.1-0.2,0.3,0,0.4l1.2,1.4c0.1,0.2,0.3,0.2,0.5,0.1
				c0,0,0.2-0.1,0.3-0.3c0.2-0.2,0.3-0.2,0.3-0.3c0,0,0-0.1,0-0.2c0-0.1,0-0.3,0.1-0.5c0-0.2,0.1-0.3,0.2-0.4
				c0.4-0.3,0.8-0.4,1.2-0.2s0.7,0.5,1.2,1.1c0,0,0.2,0,0.3-0.1c0,0,0.2-0.2,0.7-0.6c0.4-0.4,0.6-0.6,0.7-0.6c0.1-0.1,0.1-0.2,0-0.3
				c0,0-0.3-0.3-0.7-0.9c-0.5-0.7-0.3-1.4,0.6-2.1c0.4-0.3,1.2-0.7,2.6-1.4C65.4,8.8,65.5,8.8,65.3,8.8L65.3,8.8z M58.3,22.9
				l0.8,0.8c0.2,0.2,0.4,0.2,0.6-0.1l4.1-4.1L62.5,18l-4.2,4.2C58,22.5,58,22.7,58.3,22.9z M68.3,23.6c0.2,0.2,0.4,0.2,0.6,0.1
				l0.8-0.7c0.2-0.2,0.2-0.4,0-0.7L63.1,14c-0.1-0.1-0.2-0.1-0.3,0l-1.2,1.1c-0.1,0.1-0.1,0.3,0,0.3L68.3,23.6z"/>
			<circle id="contact_outline" sketch:type="MSShapeGroup" class="st0" cx="16" cy="16" r="16">
			</circle>
			<path id="Oval-56" sketch:type="MSShapeGroup" class="st1" d="M4.1,25.2c2.2-3,6.7-5.7,11.9-5.7s9.2,2.1,11.9,5.7
				c1.9-2.5,3.1-5.7,3.1-9.2c0-8.3-6.7-15-15-15S1,7.7,1,16C1,19.4,2.2,22.6,4.1,25.2z"/>
			<path id="Path-249" sketch:type="MSShapeGroup" class="st1" d="M4.8,25.9c0,0,3.7-5.4,11.2-5.4s10.6,4.5,11.2,5.4
				c0,0-4,5.1-11.2,5.1S4.8,25.9,4.8,25.9z"/>
			<circle id="Oval" sketch:type="MSShapeGroup" class="st0" cx="16" cy="12" r="5">
			</circle>
			<circle id="Oval_1_" sketch:type="MSShapeGroup" class="st1" cx="16" cy="12" r="4">
			</circle>
		</g>
	</g>
</g>
</svg>
