<?xml version="1.0" encoding="utf-8"?>
<!-- Generator: Adobe Illustrator 19.2.1, SVG Export Plug-In . SVG Version: 6.00 Build 0)  -->
<svg version="1.1" id="Layer_1" xmlns:sketch="http://www.bohemiancoding.com/sketch/ns"
	 xmlns="http://www.w3.org/2000/svg" xmlns:xlink="http://www.w3.org/1999/xlink" x="0px" y="0px" viewBox="0 0 159.8 36"
	 style="enable-background:new 0 0 159.8 36;" xml:space="preserve">
<style type="text/css">
	.st0{fill:#FFFFFF;}
	.st1{fill:url(#Shape_5_);}
	.st2{fill:url(#Shape_6_);}
	.st3{fill:url(#Shape_7_);}
</style>
<title>components/login/login_logo</title>
<desc>Created with Sketch.</desc>
<g id="App-Symbols" sketch:type="MSPage">
	<g id="login_info_call-copy-2" sketch:type="MSArtboardGroup">
		<g id="components_x2F_login_x2F_login_x5F_logo" sketch:type="MSLayerGroup">
			<path id="Shape" sketch:type="MSShapeGroup" class="st0" d="M50.8,13.2c-0.6,0-1.1,0.1-1.6,0.1C47.1,5.7,40.1,0,31.7,0
				c-8,0-14.7,5.1-17.2,12.2C13.7,12,12.9,12,12.1,12C5.4,12,0,17.4,0,24c0,6.5,5.2,11.7,11.6,12l0,0h19.3c0.3,0,0.5,0,0.8,0
				s0.5,0,0.8,0h18.2l0,0c0.1,0,0.1,0,0.2,0c6.3,0,11.4-5.1,11.4-11.4C62.3,18.3,57.1,13.2,50.8,13.2z M16.8,13.4
				c0-0.5,0.1-0.9,0.3-1.3c0.1-0.2,0.2-0.4,0.4-0.5c0.1-0.1,0.3-0.3,0.5-0.4c0.4-0.2,0.8-0.3,1.3-0.3c0.7,0,1.3,0.2,1.8,0.7
				s0.7,1,0.7,1.8v12.7c0,1.7-0.2,2.9-0.7,3.9c-1.1,2-3,3-5.8,3c-1.3,0-2.6-0.3-3.7-0.9c-1.2-0.6-1.7-1.5-1.7-2.7
				c0-0.4,0.1-0.8,0.3-1.1c0.2-0.3,0.4-0.6,0.8-0.8c0.3-0.2,0.7-0.3,1.1-0.3c0.3,0,0.6,0.1,0.8,0.2s0.5,0.2,0.8,0.4
				c0.1,0,0.2,0.1,0.4,0.2c0.1,0.1,0.3,0.1,0.4,0.2s0.2,0.1,0.3,0.1s0.2,0.1,0.4,0.1c0,0,0.2,0,0.5-0.1c0.8-0.2,1.2-1.1,1.2-3
				L16.8,13.4L16.8,13.4z M26.5,31.9c-1.2-0.7-2.1-1.7-2.8-3c-0.7-1.3-1-2.7-1-4.3c0-1.2,0.2-2.3,0.6-3.3s0.9-1.9,1.6-2.7
				c0.7-0.8,1.5-1.4,2.5-1.8s2.1-0.6,3.3-0.6c1.5,0,2.9,0.4,4.1,1.2c1.2,0.8,2.1,1.8,2.8,3.1c0.7,1.3,1,2.7,1,4.2
				c0,0.6,0,1.1-0.1,1.6s-0.2,1.1-0.4,1.6c-0.4,1-0.9,1.9-1.6,2.7C35.8,31.4,35,32,34,32.5S31.8,33,30.6,33
				C29,33,27.7,32.6,26.5,31.9z M31.2,28.4c0.3-0.1,0.8-0.2,1.1-0.5c0.5-0.3,0.8-0.8,1.1-1.4c0.2-0.6,0.4-1.3,0.4-2
				c0-1.1-0.3-2.1-0.8-2.8c-0.6-0.8-1.3-1.1-2.4-1.1s-1.8,0.4-2.4,1.1c-0.6,0.8-0.8,1.7-0.8,2.8c0,1.1,0.3,2,0.8,2.8
				c0.6,0.8,1.3,1.2,2.3,1.2C30.5,28.5,31,28.5,31.2,28.4z M54.7,19.9c0.8,1.4,1.1,3,1.1,4.6c0,1.4-0.3,2.8-0.9,4.1
				s-1.5,2.4-2.6,3.2C51.2,32.6,50,33,48.5,33c-0.8,0-1.5-0.2-2.2-0.5s-1.3-0.8-1.8-1.4c-0.1,0.3-0.4,0.7-0.8,1
				c-0.4,0.3-0.9,0.5-1.6,0.5c-0.6-0.1-1.2-0.3-1.6-0.8c-0.4-0.5-0.6-1-0.6-1.6V11.9c0-0.8,0.2-1.4,0.7-1.8c0.5-0.4,1-0.6,1.6-0.6
				c0.7,0,1.2,0.2,1.7,0.6c0.5,0.4,0.7,1,0.7,1.7v5.6c1.1-0.9,2.5-1.4,4.1-1.4c0.6,0,1.2,0.1,1.7,0.3s1.1,0.5,1.7,0.8
				C53.2,17.9,54.1,18.8,54.7,19.9z M48,20.6c-1,0-1.8,0.4-2.4,1.1c-0.6,0.7-0.9,1.7-0.9,2.8c0,0.7,0.1,1.4,0.4,2s0.6,1.1,1.1,1.4
				s1.1,0.5,1.7,0.5c1,0,1.8-0.4,2.3-1.1c0.6-0.8,0.9-1.7,0.9-2.8c0-1.1-0.3-2-0.8-2.8C49.8,21,49,20.6,48,20.6L48,20.6z"/>
			<path id="Shape_1_" sketch:type="MSShapeGroup" class="st0" d="M63.8,13.5c0-0.7,0.2-1.3,0.6-1.8s1-0.7,1.7-0.7
				c0.5,0,0.9,0.1,1.3,0.4s0.8,0.6,1.2,1.1l9.1,11.2h0.1V13.5c0-0.7,0.2-1.2,0.6-1.8c0.4-0.5,1-0.8,1.8-0.8s1.5,0.2,1.9,0.7
				s0.6,1.1,0.6,1.8V30c0,0.8-0.2,1.4-0.7,1.9c-0.4,0.5-1,0.8-1.8,0.8c-0.5,0-1-0.1-1.4-0.4s-0.7-0.6-1.1-1.1L68.6,20v10.3
				c0,0.8-0.2,1.4-0.7,1.8c-0.2,0.2-0.5,0.4-0.8,0.5s-0.7,0.2-1.1,0.2c-0.3,0-0.6-0.1-0.9-0.2c-0.3-0.1-0.5-0.3-0.7-0.6
				c-0.4-0.5-0.6-1.1-0.6-1.8L63.8,13.5L63.8,13.5z M147.7,29.7c0-0.7,0.2-1.2,0.5-1.6c0.4-0.4,0.8-0.6,1.3-0.6c0.4,0,0.7,0.1,1,0.2
				s0.7,0.3,1.2,0.5c0.2,0.1,0.4,0.2,0.6,0.3c0.2,0.1,0.4,0.2,0.7,0.3c0.3,0.1,0.6,0.2,1,0.2c0.9,0,1.4-0.3,1.4-0.9
				c0-0.3-0.1-0.6-0.3-0.7s-0.8-0.4-1.6-0.8l-1.7-0.7c-0.9-0.4-1.6-0.7-2.1-1.1s-0.9-0.8-1.2-1.3s-0.4-1.2-0.4-2
				c0-0.9,0.2-1.8,0.7-2.6c0.5-0.8,1.2-1.5,2.2-2s2-0.8,3.2-0.8c0.7,0,1.5,0.1,2.3,0.4c0.8,0.2,1.6,0.6,2.2,1.1
				c0.6,0.5,0.9,1.1,0.9,1.9c0,0.6-0.2,1.1-0.6,1.4c-0.4,0.4-0.8,0.6-1.4,0.6c-0.2,0-0.5-0.1-0.9-0.2l-1-0.4l-1-0.4
				c-0.3-0.1-0.7-0.2-0.9-0.2c-0.3,0-0.6,0.1-0.9,0.3s-0.4,0.4-0.4,0.7c0,0.4,0.4,0.7,1.1,1c0.6,0.2,1,0.4,1.3,0.5s0.8,0.3,1.4,0.6
				c1,0.4,1.8,0.9,2.5,1.6s1,1.6,1,2.8c0,1.1-0.3,2-0.8,2.8s-1.3,1.4-2.2,1.8c-0.9,0.4-1.9,0.6-3,0.6c-2,0-3.6-0.4-4.9-1.2
				C148.1,31.2,147.7,30.5,147.7,29.7L147.7,29.7z M146.9,18.8v8c0,1.3-0.3,2.5-1,3.4c-0.6,0.9-1.5,1.6-2.6,2.1S141,33,139.6,33
				c-2.1,0-3.8-0.5-5.2-1.6s-2.1-2.6-2.1-4.6v-8c0-0.7,0.2-1.3,0.7-1.7c0.4-0.5,1-0.7,1.7-0.7s1.2,0.2,1.7,0.7
				c0.4,0.5,0.7,1.1,0.7,1.7V26c0,0.8,0.3,1.5,0.8,1.9s1.1,0.7,1.8,0.7s1.3-0.2,1.8-0.7c0.5-0.4,0.8-1.1,0.8-1.9v-7.2
				c0-0.7,0.2-1.3,0.6-1.7c0.4-0.5,1-0.7,1.6-0.7c0.7,0,1.3,0.2,1.7,0.7C146.7,17.5,146.9,18.1,146.9,18.8L146.9,18.8z M130.1,19.9
				c0.8,1.4,1.1,3,1.1,4.6c0,1.4-0.3,2.8-0.9,4.1c-0.6,1.3-1.5,2.4-2.6,3.2s-2.4,1.2-3.8,1.2c-0.8,0-1.5-0.2-2.2-0.5
				s-1.3-0.8-1.8-1.4c-0.1,0.3-0.4,0.7-0.8,1c-0.4,0.3-0.9,0.5-1.6,0.5c-0.6-0.1-1.2-0.3-1.6-0.8s-0.6-1-0.6-1.6V11.9
				c0-0.8,0.2-1.4,0.7-1.8c0.5-0.4,1-0.6,1.6-0.6c0.7,0,1.2,0.2,1.7,0.6s0.7,1,0.7,1.7v5.6c1.1-0.9,2.5-1.4,4.1-1.4
				c0.6,0,1.2,0.1,1.7,0.3s1.1,0.5,1.7,0.8C128.6,17.9,129.4,18.8,130.1,19.9L130.1,19.9z M123.3,20.6c-1,0-1.8,0.4-2.4,1.1
				s-0.9,1.7-0.9,2.8c0,0.7,0.1,1.4,0.4,2s0.6,1.1,1.1,1.4s1.1,0.5,1.7,0.5c1,0,1.8-0.4,2.3-1.1c0.6-0.8,0.9-1.7,0.9-2.8
				c0-1.1-0.3-2-0.8-2.8C125.1,21,124.3,20.6,123.3,20.6L123.3,20.6z M90.6,30.3V18.8c0-0.7,0.2-1.3,0.7-1.7s1-0.7,1.7-0.7
				c0.6,0,1.1,0.1,1.5,0.4s0.7,0.7,0.8,1.1c0.4-0.6,1-1,1.7-1.3c0.8-0.3,1.6-0.5,2.3-0.5c1.9,0,3.4,0.7,4.4,2l1.2-0.8
				c0.5-0.3,1-0.6,1.6-0.8c0.6-0.2,1.3-0.3,2.1-0.3c0.5,0,1,0.1,1.4,0.2s0.9,0.3,1.3,0.5c0.8,0.4,1.5,1,2,1.8s0.8,1.8,0.8,3.1v8.7
				c0,0.7-0.2,1.3-0.7,1.7c-0.4,0.5-1,0.7-1.7,0.7s-1.2-0.2-1.7-0.7s-0.7-1-0.7-1.7v-7.4c0-0.8-0.2-1.5-0.6-2s-1-0.8-1.7-0.8
				s-1.3,0.3-1.7,0.8c-0.4,0.5-0.6,1.2-0.6,2v7.4c0,0.7-0.2,1.3-0.7,1.7c-0.4,0.5-1,0.7-1.7,0.7s-1.2-0.2-1.7-0.7s-0.7-1-0.7-1.7
				v-7.4c0-0.8-0.2-1.5-0.6-2s-1-0.8-1.7-0.8s-1.3,0.3-1.7,0.8c-0.4,0.5-0.6,1.2-0.6,2v7.4c0,0.7-0.2,1.3-0.7,1.7
				c-0.4,0.5-1,0.7-1.7,0.7s-1.2-0.2-1.7-0.7C90.8,31.5,90.6,30.9,90.6,30.3L90.6,30.3z M86.7,15.4c-0.6,0-1.1-0.2-1.6-0.7
				c-0.4-0.4-0.7-1-0.7-1.6s0.2-1.1,0.7-1.6s1-0.7,1.6-0.7s1.2,0.2,1.6,0.7c0.4,0.4,0.7,1,0.7,1.6s-0.2,1.1-0.7,1.6
				C87.8,15.2,87.3,15.4,86.7,15.4L86.7,15.4z M84.3,30.3V18.8c0-0.7,0.2-1.3,0.7-1.8c0.4-0.5,1-0.7,1.7-0.7s1.2,0.2,1.7,0.7
				s0.7,1.1,0.7,1.7v11.5c0,0.7-0.2,1.2-0.7,1.7s-1,0.7-1.7,0.7s-1.3-0.2-1.7-0.7C84.6,31.5,84.3,30.9,84.3,30.3L84.3,30.3z"/>
			
				<linearGradient id="Shape_5_" gradientUnits="userSpaceOnUse" x1="-827.4636" y1="145.3219" x2="-827.4636" y2="147.027" gradientTransform="matrix(4.0172 0 0 9.6453 3343.0869 -1392.7104)">
				<stop  offset="0" style="stop-color:#FDFDFE;stop-opacity:0"/>
				<stop  offset="0.9104" style="stop-color:#FDFDFE;stop-opacity:0.4"/>
				<stop  offset="1" style="stop-color:#FDFDFE"/>
			</linearGradient>
			<path id="Shape_2_" sketch:type="MSShapeGroup" class="st1" d="M19.1,11.4c-0.4,0-0.8,0.1-1.1,0.2c-0.2,0.1-0.3,0.2-0.4,0.3
				s-0.2,0.2-0.3,0.4C17.1,12.6,17,13,17,13.4v7c1.2,0.1,2.6,0.3,4,0.6v-7.6c0-0.6-0.2-1.1-0.5-1.5C20.2,11.6,19.8,11.4,19.1,11.4"
				/>
			
				<linearGradient id="Shape_6_" gradientUnits="userSpaceOnUse" x1="-1005.4184" y1="181.2461" x2="-1005.4184" y2="183.4788" gradientTransform="matrix(14.4431 0 0 7.3732 14552.1582 -1327.4175)">
				<stop  offset="0" style="stop-color:#FDFDFE;stop-opacity:0"/>
				<stop  offset="0.9104" style="stop-color:#FDFDFE;stop-opacity:0.4"/>
				<stop  offset="1" style="stop-color:#FDFDFE"/>
			</linearGradient>
			<path id="Shape_3_" sketch:type="MSShapeGroup" class="st2" d="M30.6,16.5c-1.1,0-2.2,0.2-3.1,0.6s-1.7,1-2.4,1.7
				c-0.7,0.7-1.2,1.6-1.5,2.6v0.1c1.2,0.2,2.5,0.5,3.8,0.7c0.1-0.3,0.3-0.5,0.5-0.8c0.6-0.9,1.6-1.3,2.7-1.3c1.2,0,2.1,0.4,2.7,1.3
				c0.4,0.5,0.7,1.2,0.8,1.9c1.3,0.2,2.6,0.4,3.9,0.5c-0.1-1.2-0.4-2.3-0.9-3.4c-0.6-1.2-1.5-2.2-2.6-2.9
				C33.3,16.9,32,16.5,30.6,16.5"/>
			
				<linearGradient id="Shape_7_" gradientUnits="userSpaceOnUse" x1="-1006.809" y1="106.7948" x2="-1006.809" y2="107.9456" gradientTransform="matrix(14.7411 0 0 14.2923 14889.1729 -1517.3672)">
				<stop  offset="0" style="stop-color:#FDFDFE;stop-opacity:0"/>
				<stop  offset="0.9104" style="stop-color:#FDFDFE;stop-opacity:0.4"/>
				<stop  offset="1" style="stop-color:#FDFDFE;stop-opacity:0.5"/>
			</linearGradient>
			<path id="Shape_4_" sketch:type="MSShapeGroup" class="st3" d="M42.2,9.9c-0.5,0-0.9,0.2-1.3,0.5c-0.4,0.4-0.5,0.8-0.5,1.5v12.2
				c1.2,0.1,2.3,0.1,3.5,0.1c0.1,0,0.2,0,0.3,0c0.1-1.1,0.4-2,1-2.7c0.7-0.8,1.6-1.3,2.7-1.3c1.2,0,2.1,0.4,2.7,1.3
				c0.4,0.6,0.7,1.2,0.8,2c1.3-0.3,2.5-0.6,3.6-1.1c-0.2-0.8-0.5-1.5-0.8-2.2c-0.6-1.1-1.4-1.9-2.4-2.6c-0.5-0.3-1-0.6-1.6-0.8
				c-0.5-0.2-1-0.3-1.6-0.3c-1.6,0-2.9,0.4-3.9,1.3L44,18.4v-6.5c0-0.6-0.2-1.1-0.6-1.4C43.2,10.1,42.8,9.9,42.2,9.9"/>
		</g>
	</g>
</g>
</svg>
